<svg t="1691996983329" class="icon" viewBox="0 0 1024 1024" version="1.1" xmlns="http://www.w3.org/2000/svg" p-id="5841" width="200" height="200"><path d="M405.504 786.432l-209.92 48.128c-31.744 7.168-62.464-16.384-62.464-49.152V360.448c0-24.576 18.432-46.08 43.008-50.176l209.92-31.744c30.72-5.12 58.368 19.456 58.368 50.176V737.28c0 23.552-16.384 44.032-38.912 49.152z" fill="#C1FDF2" p-id="5842"></path><path d="M183.296 845.824c-13.312 0-26.624-4.096-37.888-13.312-14.336-11.264-22.528-28.672-22.528-48.128V360.448c0-30.72 21.504-55.296 52.224-60.416l209.92-31.744c17.408-3.072 35.84 2.048 49.152 14.336 13.312 11.264 21.504 28.672 21.504 46.08V737.28c0 28.672-19.456 53.248-47.104 59.392l-209.92 48.128c-6.144 1.024-10.24 1.024-15.36 1.024z m210.944-558.08h-6.144l-209.92 31.744c-19.456 3.072-34.816 19.456-34.816 39.936v424.96c0 12.288 5.12 23.552 15.36 31.744 9.216 8.192 22.528 10.24 33.792 8.192l209.92-48.128c18.432-4.096 31.744-20.48 31.744-39.936V328.704c0-12.288-5.12-22.528-14.336-30.72-7.168-6.144-16.384-10.24-25.6-10.24z" fill="#1C1C1C" p-id="5843"></path><path d="M822.272 768l-203.776-14.336c-28.672-2.048-50.176-24.576-50.176-51.2V301.056c0-29.696 26.624-53.248 58.368-51.2l203.776 14.336c28.672 2.048 50.176 24.576 50.176 51.2V716.8c0 29.696-26.624 53.248-58.368 51.2z" fill="#FFCEEB" p-id="5844"></path><path d="M826.368 778.24h-5.12l-203.776-14.336c-33.792-2.048-59.392-29.696-59.392-61.44V301.056c0-16.384 7.168-32.768 19.456-44.032 13.312-12.288 31.744-18.432 50.176-17.408l203.776 14.336c33.792 2.048 59.392 29.696 59.392 61.44V716.8c0 16.384-7.168 32.768-19.456 44.032-12.288 11.264-28.672 17.408-45.056 17.408z m-3.072-20.48c12.288 1.024 25.6-3.072 34.816-12.288 8.192-7.168 12.288-18.432 12.288-28.672V316.416c0-21.504-17.408-38.912-40.96-40.96l-203.776-14.336c-13.312-1.024-25.6 3.072-34.816 12.288-8.192 8.192-13.312 18.432-13.312 28.672v400.384c0 21.504 17.408 38.912 40.96 40.96l204.8 14.336z" fill="#1C1C1C" p-id="5845"></path><path d="M552.96 753.664h-101.376c-13.312 0-23.552-10.24-23.552-23.552v-460.8c0-13.312 10.24-23.552 23.552-23.552H552.96c13.312 0 23.552 10.24 23.552 23.552v460.8c0 13.312-11.264 23.552-23.552 23.552z" fill="#FDFBA3" p-id="5846"></path><path d="M552.96 763.904h-101.376c-18.432 0-33.792-15.36-33.792-33.792v-460.8c0-18.432 15.36-33.792 33.792-33.792H552.96c18.432 0 33.792 15.36 33.792 33.792v460.8c0 18.432-15.36 33.792-33.792 33.792zM451.584 256c-7.168 0-13.312 6.144-13.312 13.312v460.8c0 7.168 6.144 13.312 13.312 13.312H552.96c7.168 0 13.312-6.144 13.312-13.312v-460.8c0-7.168-6.144-13.312-13.312-13.312h-101.376z" fill="#1C1C1C" p-id="5847"></path><path d="M200.704 487.424l155.648-25.6" fill="#FDFBA3" p-id="5848"></path><path d="M200.704 497.664c-5.12 0-9.216-3.072-10.24-8.192-1.024-5.12 3.072-11.264 8.192-11.264l155.648-25.6c5.12-1.024 11.264 3.072 11.264 8.192 1.024 5.12-3.072 11.264-8.192 11.264l-155.648 25.6h-1.024z" fill="#1C1C1C" p-id="5849"></path><path d="M210.944 545.792l84.992-13.312" fill="#FDFBA3" p-id="5850"></path><path d="M210.944 556.032c-5.12 0-9.216-3.072-10.24-8.192-1.024-5.12 3.072-11.264 8.192-11.264l84.992-14.336c5.12-1.024 11.264 3.072 11.264 8.192 1.024 5.12-3.072 11.264-8.192 11.264l-84.992 14.336h-1.024z" fill="#1C1C1C" p-id="5851"></path><path d="M222.208 616.448l84.992-14.336" fill="#FDFBA3" p-id="5852"></path><path d="M222.208 626.688c-5.12 0-9.216-3.072-10.24-8.192-1.024-5.12 3.072-11.264 8.192-11.264l84.992-14.336c5.12-1.024 11.264 3.072 11.264 8.192 1.024 5.12-3.072 11.264-8.192 11.264l-84.992 14.336h-1.024z" fill="#1C1C1C" p-id="5853"></path><path d="M222.208 675.84l84.992-14.336" fill="#FDFBA3" p-id="5854"></path><path d="M222.208 686.08c-5.12 0-9.216-3.072-10.24-8.192-1.024-5.12 3.072-11.264 8.192-11.264l84.992-14.336c5.12-1.024 11.264 3.072 11.264 8.192 1.024 5.12-3.072 11.264-8.192 11.264L224.256 686.08h-2.048z" fill="#1C1C1C" p-id="5855"></path><path d="M780.288 471.04c-8.192-7.168-20.48-5.12-27.648 3.072l-8.192 10.24c-3.072 3.072-7.168 2.048-9.216-1.024l-2.048-6.144c-5.12-13.312-19.456-19.456-32.768-14.336-10.24 4.096-15.36 15.36-11.264 25.6l26.624 51.2 7.168 14.336c2.048 5.12 9.216 6.144 12.288 2.048l11.264-11.264 37.888-35.84c8.192-13.312 6.144-28.672-4.096-37.888z" fill="#B7BAFF" p-id="5856"></path><path d="M729.088 566.272h-3.072c-6.144-1.024-11.264-5.12-13.312-10.24l-7.168-14.336-26.624-52.224c-3.072-7.168-2.048-15.36 1.024-23.552 3.072-7.168 9.216-13.312 16.384-15.36 17.408-7.168 37.888 2.048 45.056 19.456l3.072-3.072c10.24-12.288 28.672-14.336 41.984-4.096 15.36 12.288 17.408 34.816 5.12 50.176l-1.024 1.024-37.888 35.84-10.24 11.264c-4.096 3.072-8.192 5.12-13.312 5.12z m-2.048-19.456z m-28.672-64.512l25.6 50.176 5.12 11.264 8.192-9.216 37.888-34.816c5.12-6.144 4.096-16.384-2.048-21.504-4.096-3.072-10.24-3.072-13.312 1.024l-8.192 10.24c-3.072 4.096-9.216 6.144-14.336 5.12-5.12-1.024-10.24-5.12-12.288-10.24l-2.048-6.144c-3.072-8.192-11.264-11.264-19.456-9.216-2.048 1.024-4.096 3.072-5.12 5.12-1.024 3.072-1.024 6.144 0 8.192z" fill="#1C1C1C" p-id="5857"></path></svg>